<svg xmlns="http://www.w3.org/2000/svg" width="36" height="36" viewBox="0 0 36 36">
    <rect x="0" y="0" width="36" height="36" fill="#439043" />


    <g transform="translate(4.5 4.5) scale(0.75)">
        <path fill="#662113"
            d="M32.325 10.958s2.315.024 3.511 1.177c-.336-4.971-2.104-8.249-5.944-10.13c-3.141-1.119-6.066 1.453-6.066 1.453s.862-1.99 2.19-2.746C23.789.236 21.146 0 18 0c-3.136 0-5.785.227-8.006.701c1.341.745 2.215 2.758 2.215 2.758S9.194.803 6 2.053C2.221 3.949.481 7.223.158 12.174c1.183-1.19 3.55-1.215 3.55-1.215S-.105 13.267.282 16.614c.387 2.947 1.394 5.967 2.879 8.722C3.039 22.15 5.917 20 5.917 20s-2.492 5.96-.581 8.738c1.935 2.542 4.313 4.641 6.976 5.916c-.955-1.645-.136-3.044-.103-2.945c.042.125.459 3.112 2.137 3.743c1.178.356 2.4.548 3.654.548c1.292 0 2.55-.207 3.761-.583c1.614-.691 2.024-3.585 2.064-3.708c.032-.098.843 1.287-.09 2.921c2.706-1.309 5.118-3.463 7.064-6.073c1.699-2.846-.683-8.557-.683-8.557s2.85 2.13 2.757 5.288c1.556-2.906 2.585-6.104 2.911-9.2c-.035-3.061-3.459-5.13-3.459-5.13" />
        <path fill="#ffcc4d"
            d="M13.859 9.495c.596 2.392.16 4.422-2.231 5.017s-6.363.087-6.958-2.304c-.596-2.392.469-5.39 1.81-5.724s6.784.62 7.379 3.011m9.104 18.432a4.964 4.964 0 1 1-9.927-.001a4.964 4.964 0 0 1 9.927.001" />
        <path fill="#dd2e44" d="M21.309 27.927a3.309 3.309 0 1 1-6.618 0a3.309 3.309 0 0 1 6.618 0" />
        <path fill="#e6aaaa"
            d="M11.052 8.997a2.976 2.976 0 0 1-.946 4.1c-1.394.871-2.608.797-3.479-.596s-.186-4.131.324-4.45s3.23-.448 4.101.946" />
        <path fill="#ffcc4d"
            d="M22.141 9.495c-.596 2.392-.159 4.422 2.232 5.017s6.363.087 6.959-2.304s-.47-5.39-1.811-5.724c-1.342-.334-6.786.62-7.38 3.011" />
        <path fill="#e6aaaa"
            d="M24.948 8.997a2.976 2.976 0 0 0 .945 4.1c1.394.871 2.608.797 3.479-.596s.185-4.131-.324-4.45c-.51-.319-3.229-.448-4.1.946" />
        <path fill="#ffcc4d"
            d="M18 7.125h-.002C5.167 7.126 7.125 12.083 8.5 18.667S10.384 27 10.384 27h15.228s.51-1.75 1.885-8.333S30.829 7.126 18 7.125" />
        <path fill="#272b2b"
            d="M12 16s0-1.5 1.5-1.5S15 16 15 16v1.5s0 1.5-1.5 1.5s-1.5-1.5-1.5-1.5zm9 0s0-1.5 1.5-1.5S24 16 24 16v1.5s0 1.5-1.5 1.5s-1.5-1.5-1.5-1.5z" />
        <path fill="#ffe8b6"
            d="M20.168 21.521c-1.598 0-1.385.848-2.168 2.113c-.783-1.266-.571-2.113-2.168-2.113c-6.865 0-6.837.375-6.865 2.828c-.058 4.986 2.802 6.132 5.257 6.06c1.597-.048 2.994-.88 3.777-2.131c.783 1.251 2.179 2.083 3.776 2.131c2.455.072 5.315-1.073 5.257-6.06c-.029-2.453-.001-2.828-6.866-2.828" />
        <path fill="#272b2b"
            d="M14.582 21.411c-1.14.233 2.279 4.431 3.418 4.431s4.559-4.198 3.419-4.431s-5.698-.232-6.837 0" />
        <circle cx="11.5" cy="24.5" r=".5" fill="#d99e82" />
        <circle cx="10.5" cy="26.5" r=".5" fill="#d99e82" />
        <circle cx="12.5" cy="27.5" r=".5" fill="#d99e82" />
        <circle cx="24.5" cy="24.5" r=".5" fill="#d99e82" />
        <circle cx="25.5" cy="26.5" r=".5" fill="#d99e82" />
        <circle cx="23.5" cy="27.5" r=".5" fill="#d99e82" />
    </g>

    <circle cx="30.4" cy="30.4" r="8" fill="#439043" opacity="0.8" />

    <g transform="translate(24 24) scale(0.025)">
        <clipPath id="p.0">
            <path d="m0 0l512.0 0l0 512.0l-512.0 0l0 -512.0z" clip-rule="nonzero" />
        </clipPath>
        <g clip-path="url(#p.0)">
            <path fill="#000000" fill-opacity="0.0" d="m0 0l512.0 0l0 512.0l-512.0 0z" fill-rule="evenodd" />


            <path fill="#8800ff"
                d="m0 256.0l0 0c0 -141.38489 114.615105 -256.0 256.0 -256.0l0 0c67.89542 0 133.01001 26.971352 181.01935 74.98067c48.009308 48.009308 74.98065 113.12392 74.98065 181.01933l0 0c0 141.38489 -114.61511 256.0 -256.0 256.0l0 0c-141.38489 0 -256.0 -114.61511 -256.0 -256.0z"
                fill-rule="evenodd" />

            <path fill="#000000" fill-opacity="0.0" d="m0 0l512.0 0l0 512.0l-512.0 0z" fill-rule="evenodd" />
            <path fill="#eeeeee"
                d="m329.54297 400.0l-135.54688 0q-21.6875 0 -28.234375 -9.375q-6.53125 -9.375 -6.53125 -17.0q0 -14.84375 15.515625 -35.9375q15.53125 -21.09375 58.109375 -56.640625q42.578125 -35.546875 55.46875 -51.171875q12.890625 -15.625 12.890625 -34.765625q0 -19.53125 -13.1875 -30.953125q-13.171875 -11.421875 -31.734375 -11.421875q-15.8125 0 -27.921875 8.59375q-12.109375 8.59375 -17.6875 24.90625q-5.5625 16.296875 -10.84375 23.625q-5.265625 7.328125 -17.171875 7.328125q-9.765625 0 -16.40625 -6.34375q-6.640625 -6.359375 -6.640625 -17.296875q0 -29.875 25.390625 -55.75q25.390625 -25.890625 72.0625 -25.890625q50.203125 0 73.734375 24.515625q23.53125 24.515625 23.53125 57.125q0 25.984375 -15.53125 49.234375q-15.515625 23.234375 -48.4375 49.796875q-32.90625 26.5625 -42.375 35.640625q-9.46875 9.078125 -21.578125 25.6875l95.5 0q22.078125 0 29.890625 6.15625q7.8125 6.140625 7.8125 16.6875q0 11.53125 -7.03125 17.390625q-7.03125 5.859375 -23.046875 5.859375z"
                fill-rule="nonzero" />
        </g>
    </g>
</svg>