<svg xmlns="http://www.w3.org/2000/svg" width="36" height="36" viewBox="0 0 36 36">
    <g transform="translate(24 24) scale(0.025)">
        <clipPath id="p.0">
            <path d="m0 0l512.0 0l0 512.0l-512.0 0l0 -512.0z" clip-rule="nonzero" />
        </clipPath>
        <g clip-path="url(#p.0)">
            <path fill="#eeeeee"
                d="m329.54297 400.0l-135.54688 0q-21.6875 0 -28.234375 -9.375q-6.53125 -9.375 -6.53125 -17.0q0 -14.84375 15.515625 -35.9375q15.53125 -21.09375 58.109375 -56.640625q42.578125 -35.546875 55.46875 -51.171875q12.890625 -15.625 12.890625 -34.765625q0 -19.53125 -13.1875 -30.953125q-13.171875 -11.421875 -31.734375 -11.421875q-15.8125 0 -27.921875 8.59375q-12.109375 8.59375 -17.6875 24.90625q-5.5625 16.296875 -10.84375 23.625q-5.265625 7.328125 -17.171875 7.328125q-9.765625 0 -16.40625 -6.34375q-6.640625 -6.359375 -6.640625 -17.296875q0 -29.875 25.390625 -55.75q25.390625 -25.890625 72.0625 -25.890625q50.203125 0 73.734375 24.515625q23.53125 24.515625 23.53125 57.125q0 25.984375 -15.53125 49.234375q-15.515625 23.234375 -48.4375 49.796875q-32.90625 26.5625 -42.375 35.640625q-9.46875 9.078125 -21.578125 25.6875l95.5 0q22.078125 0 29.890625 6.15625q7.8125 6.140625 7.8125 16.6875q0 11.53125 -7.03125 17.390625q-7.03125 5.859375 -23.046875 5.859375z"
                fill-rule="nonzero" />
        </g>
    </g>
</svg>